<svg width="32" height="36" viewBox="0 0 32 36" fill="none" xmlns="http://www.w3.org/2000/svg">
<path d="M15.1074 35.2937C13.3382 35.641 11.5173 35.5949 9.7668 35.1586C8.01631 34.7223 6.37673 33.9059 4.95803 32.7641C3.53932 31.6223 2.37431 30.1816 1.54112 28.5385C0.707938 26.8954 0.225846 25.088 0.127184 23.2374C0.114009 23.0016 0.107422 22.7643 0.107422 22.523C0.109666 20.6101 0.521661 18.7213 1.31408 16.9909C2.1065 15.2606 3.25987 13.7312 4.69208 12.5117C6.12429 11.2922 7.80015 10.4126 9.60035 9.9354C11.4006 9.45821 13.2809 9.39521 15.1074 9.75088C12.2184 10.3173 9.61187 11.9029 7.73697 14.2344C5.86207 16.566 4.83623 19.4974 4.83623 22.5237C4.83623 25.5499 5.86207 28.4814 7.73697 30.8129C9.61187 33.1444 12.2184 34.73 15.1074 35.2965V35.2937Z" fill="url(#paint0_linear_105_1197)"/>
<path d="M31.1621 16.7689C31.1618 20.0946 29.8562 23.284 27.5326 25.6355C25.2091 27.9871 22.0578 29.3081 18.7719 29.3081C18.6427 29.3081 18.5135 29.3081 18.3947 29.3081C18.2758 29.3081 18.144 29.3003 18.0187 29.2911C17.8934 29.282 17.781 29.2767 17.6621 29.2636L17.5252 29.2506C17.4812 29.2506 17.4347 29.2427 17.396 29.2362L17.1918 29.2126C16.9864 29.1865 16.7861 29.1551 16.5885 29.1185C16.5148 29.1054 16.4399 29.091 16.3662 29.0753C15.9967 29.0038 15.631 28.913 15.2706 28.8033C15.1879 28.7798 15.1078 28.7537 15.0277 28.7275C14.8572 28.6752 14.6905 28.6177 14.5252 28.5549C14.4063 28.513 14.2913 28.4673 14.1789 28.4241C14.0665 28.381 13.9657 28.3365 13.8624 28.2934C13.759 28.2502 13.6414 28.194 13.5316 28.143C13.4218 28.092 13.2848 28.024 13.1621 27.9625C13.6263 28.0145 14.093 28.0407 14.56 28.041C14.6828 28.041 14.8055 28.041 14.927 28.041H14.9851C15.1143 28.041 15.2358 28.0331 15.3598 28.0227H15.4037H15.4128C15.5523 28.0122 15.6905 28.0017 15.8301 27.9861C15.9696 27.9704 16.113 27.956 16.2525 27.9351C16.3107 27.9351 16.3701 27.9207 16.4296 27.9102L16.6066 27.8801L16.7112 27.8631C16.8236 27.8461 16.9347 27.8239 17.0445 27.7991L17.0936 27.7899H17.1182C17.2332 27.769 17.3443 27.7428 17.4567 27.7141L17.5174 27.6984C17.5781 27.6853 17.6376 27.6709 17.697 27.6539L17.874 27.6042L17.905 27.5964H17.9153C18.0445 27.5624 18.1647 27.5244 18.2874 27.4839C18.4102 27.4434 18.5174 27.4107 18.6311 27.3675L18.7409 27.3296H18.7551C18.852 27.2982 18.9489 27.2616 19.0445 27.2211L19.1182 27.191L19.2693 27.1295C19.3197 27.1099 19.3714 27.089 19.4218 27.0655C19.4426 27.0577 19.4629 27.0485 19.4825 27.038C19.5394 27.0145 19.5949 26.9883 19.6492 26.9648C19.7035 26.9412 19.759 26.9164 19.8133 26.8876C19.8675 26.8588 19.936 26.8301 19.9967 26.7987C20.0575 26.7673 20.1195 26.7412 20.1802 26.7072C20.3029 26.647 20.4218 26.5764 20.5394 26.5149L20.812 26.358C20.896 26.3096 20.9825 26.2586 21.0639 26.2024C21.1453 26.1462 21.237 26.0965 21.3223 26.0389L21.573 25.8676C21.6841 25.7931 21.7939 25.7146 21.9011 25.6309C22.0084 25.5473 22.1169 25.4701 22.2215 25.3838C22.3262 25.2975 22.4334 25.2125 22.5342 25.1223C22.604 25.0673 22.6737 25.0046 22.7435 24.9405C22.7939 24.8973 22.8443 24.8503 22.8947 24.8097C22.9864 24.726 23.0768 24.641 23.1647 24.5482C23.2099 24.5077 23.2513 24.4645 23.2939 24.4174C23.3365 24.3704 23.3766 24.335 23.4231 24.2867C23.4967 24.2121 23.5678 24.1376 23.635 24.0604L23.6531 24.0434L23.7603 23.9271C23.7686 23.9156 23.7777 23.9047 23.7874 23.8944C23.8378 23.8394 23.8869 23.7832 23.9334 23.7257C24.0071 23.642 24.0781 23.557 24.1479 23.4641C24.2177 23.3713 24.2668 23.3177 24.321 23.2431C24.3314 23.2301 24.3417 23.2144 24.352 23.2026C24.3716 23.181 24.3893 23.1579 24.405 23.1333C24.458 23.0653 24.5084 23.0025 24.5588 22.9267C24.5635 22.9213 24.5678 22.9157 24.5717 22.9097C24.6053 22.8652 24.6376 22.8181 24.6712 22.7711C24.7319 22.6835 24.8004 22.5932 24.8507 22.5095C24.8669 22.4903 24.8807 22.4692 24.8921 22.4468C24.9644 22.3404 25.0342 22.2319 25.1014 22.1212C25.1014 22.112 25.1117 22.1042 25.1156 22.095C25.1217 22.0862 25.1273 22.077 25.1324 22.0675C25.2009 21.9538 25.2681 21.8387 25.3327 21.7236C25.3973 21.6086 25.4722 21.4699 25.5394 21.3418C25.6066 21.2136 25.6686 21.0803 25.7345 20.9495C26.5409 19.245 26.954 17.3772 26.9425 15.4874C26.9442 13.1726 26.3123 10.9025 25.1168 8.92917C23.9213 6.95581 22.209 5.35629 20.1699 4.30811C23.1946 4.65545 25.9871 6.11779 28.0146 8.41609C30.042 10.7144 31.1625 13.6878 31.1621 16.7689Z" fill="url(#paint1_linear_105_1197)"/>
<path d="M20.2175 18.4756C20.2556 18.0258 20.2753 17.5679 20.2753 17.1045C20.2819 15.093 19.9012 13.1005 19.1555 11.244C18.9283 10.6812 18.6652 10.1348 18.3678 9.60847C17.1416 7.43735 15.3968 5.75279 13.3567 4.83009C12.2191 4.30782 10.989 4.0381 9.74512 4.03824C9.50487 4.03824 9.26594 4.04915 9.02963 4.06959C4.93361 4.40623 1.47562 7.66632 0 12.1871C0.547449 5.60559 5.0255 0.475586 10.4724 0.475586C12.107 0.480165 13.7102 0.942036 15.1133 1.8126C15.7917 2.22817 16.4224 2.72245 16.9932 3.28591C18.713 4.97184 19.9996 7.31196 20.6075 10.0024C20.8172 10.929 20.9433 11.874 20.9842 12.8249C20.9947 13.0635 21 13.3033 21 13.5459C21.0017 15.2226 20.7374 16.8881 20.2175 18.4756Z" fill="url(#paint2_linear_105_1197)"/>
<defs>
<linearGradient id="paint0_linear_105_1197" x1="0.107422" y1="22.524" x2="15.1074" y2="22.524" gradientUnits="userSpaceOnUse">
<stop stop-color="#F72F16"/>
<stop offset="1" stop-color="#9022CB"/>
</linearGradient>
<linearGradient id="paint1_linear_105_1197" x1="13.1621" y1="16.8082" x2="31.1621" y2="16.8082" gradientUnits="userSpaceOnUse">
<stop stop-color="#F72F16"/>
<stop offset="1" stop-color="#9022CB"/>
</linearGradient>
<linearGradient id="paint2_linear_105_1197" x1="0" y1="9.47562" x2="21" y2="9.47562" gradientUnits="userSpaceOnUse">
<stop stop-color="#F72F16"/>
<stop offset="1" stop-color="#9022CB"/>
</linearGradient>
</defs>
</svg>
