<?xml version="1.0" standalone="no"?>
<!DOCTYPE svg PUBLIC "-//W3C//DTD SVG 20010904//EN"
 "http://www.w3.org/TR/2001/REC-SVG-20010904/DTD/svg10.dtd">
<svg version="1.0" xmlns="http://www.w3.org/2000/svg"
 width="576.000000pt" height="576.000000pt" viewBox="0 0 576.000000 576.000000"
 preserveAspectRatio="xMidYMid meet">
<metadata>
Created by potrace 1.14, written by Peter Selinger 2001-2017
</metadata>
<g transform="translate(0.000000,576.000000) scale(0.100000,-0.100000)"
fill="#000000" stroke="none">
<path d="M1948 5685 c-2 -2 -37 -6 -78 -9 -73 -5 -160 -19 -190 -30 -8 -3 -26
-7 -40 -10 -118 -20 -358 -136 -501 -243 -93 -70 -105 -80 -194 -168 -160
-159 -287 -338 -390 -550 -51 -104 -138 -332 -149 -389 -2 -6 -8 -31 -15 -56
-15 -50 -15 -54 -36 -165 -25 -140 -40 -254 -28 -225 3 8 14 34 24 57 11 23
19 47 19 53 0 5 4 18 10 28 5 9 30 62 57 117 64 135 215 378 252 405 4 3 17
19 30 35 50 66 187 200 256 250 22 17 42 33 45 36 3 3 39 28 80 54 96 62 227
127 310 155 36 12 72 24 80 27 8 3 20 7 25 7 6 1 28 7 50 13 22 6 63 14 90 18
28 4 66 9 85 11 96 14 295 5 400 -17 25 -6 54 -11 65 -13 94 -17 330 -119 445
-194 466 -303 782 -831 885 -1477 25 -154 36 -395 25 -517 -3 -32 -3 -58 0
-58 12 0 75 259 85 349 3 30 8 57 9 60 8 12 19 147 27 316 1 16 -12 297 -15
325 -2 14 -6 45 -10 70 -4 25 -10 59 -12 75 -24 154 -71 321 -134 480 -32 81
-93 217 -110 245 -5 8 -23 40 -41 70 -29 51 -127 199 -139 210 -3 3 -25 30
-49 60 -68 84 -217 227 -305 292 -74 55 -239 158 -253 158 -3 0 -29 11 -57 24
-73 34 -211 79 -276 90 -19 3 -46 8 -60 11 -48 10 -266 26 -272 20z"/>
<path d="M3580 5062 c0 -4 37 -29 81 -56 208 -125 461 -354 569 -515 8 -13 25
-35 37 -49 13 -15 23 -32 23 -39 0 -6 4 -13 8 -15 22 -9 149 -250 191 -363 13
-33 27 -69 31 -80 10 -24 29 -84 35 -114 3 -11 7 -30 10 -41 3 -11 7 -29 10
-41 2 -11 7 -29 10 -40 4 -11 8 -32 10 -47 3 -15 7 -38 10 -52 31 -143 27
-549 -7 -700 -5 -25 -11 -54 -14 -65 -2 -11 -6 -33 -10 -50 -3 -16 -26 -90
-50 -164 -52 -156 -132 -325 -209 -441 -30 -46 -55 -86 -55 -90 0 -5 -3 -10
-7 -12 -5 -1 -35 -37 -67 -78 -130 -164 -351 -358 -529 -462 -229 -134 -469
-220 -707 -253 -25 -4 -58 -9 -75 -11 -52 -8 -320 -11 -379 -4 -31 3 -56 5
-56 3 0 -16 334 -143 410 -156 14 -3 59 -12 100 -20 127 -27 169 -30 350 -31
207 -1 291 7 464 45 48 11 96 24 105 28 9 5 18 9 21 9 21 1 101 26 106 33 3 5
12 9 21 9 9 0 46 14 82 31 36 17 82 38 101 47 123 56 317 188 429 291 14 13
40 35 56 50 110 100 271 304 354 451 52 92 149 307 151 335 0 3 7 22 15 42 16
41 60 216 69 273 3 19 8 49 11 65 26 149 23 488 -5 620 -5 22 -14 67 -20 100
-26 138 -108 365 -176 491 -20 38 -44 83 -52 99 -19 37 -91 145 -109 163 -7 7
-13 16 -13 20 0 4 -10 19 -23 34 -12 14 -38 46 -57 69 -86 106 -315 312 -398
359 -15 8 -29 18 -32 21 -11 12 -160 97 -225 128 -160 76 -344 135 -520 167
-22 4 -48 9 -57 11 -10 1 -18 -1 -18 -5z"/>
<path d="M2257 4234 c-1 -1 -38 -4 -82 -8 -100 -8 -151 -16 -210 -30 -16 -4
-64 -16 -105 -26 -42 -10 -92 -25 -113 -33 -20 -9 -37 -14 -37 -12 0 15 -265
-111 -373 -177 -43 -26 -82 -48 -87 -48 -5 0 -10 -4 -12 -8 -1 -4 -39 -34 -83
-67 -145 -107 -313 -286 -462 -491 -16 -21 -33 -49 -40 -64 -3 -8 -14 -26 -24
-40 -9 -14 -38 -68 -64 -120 -53 -106 -57 -115 -83 -185 -10 -27 -22 -59 -27
-70 -4 -11 -9 -24 -10 -30 -2 -5 -13 -43 -25 -84 -22 -75 -27 -96 -36 -141 -2
-14 -6 -34 -9 -46 -33 -146 -45 -362 -31 -557 4 -54 9 -106 11 -116 2 -11 7
-41 10 -68 4 -26 11 -64 15 -83 5 -19 11 -46 14 -60 21 -102 102 -340 132
-387 8 -13 12 -23 9 -23 -17 0 193 -348 235 -390 3 -3 23 -27 44 -55 99 -127
378 -373 495 -436 17 -9 36 -21 43 -26 20 -16 186 -99 258 -129 109 -45 225
-80 365 -110 194 -42 432 -48 665 -17 30 4 58 6 63 5 4 -1 7 2 7 7 0 10 -24
21 -48 21 -17 0 -203 55 -237 70 -11 5 -49 21 -85 35 -77 32 -204 97 -208 108
-2 4 -8 7 -14 7 -5 0 -29 13 -53 30 -24 16 -46 30 -49 30 -9 0 -183 136 -230
179 -141 130 -257 267 -360 424 -31 47 -166 301 -165 310 0 1 -5 16 -11 32
-53 133 -107 326 -124 435 -3 19 -8 46 -11 59 -24 120 -24 491 0 611 3 14 7
41 10 61 2 19 11 64 20 100 9 35 18 74 21 86 15 70 84 256 139 369 52 110 170
307 209 351 6 6 22 26 36 45 138 183 415 416 625 526 44 23 188 90 220 102 36
14 150 55 155 55 23 3 157 39 162 44 4 4 -5 8 -20 9 -15 1 -38 4 -52 7 -64 13
-372 28 -383 19z"/>
</g>
</svg>
